<?xml version="1.0" encoding="utf-8"?>
<!-- Generator: Adobe Illustrator 19.2.1, SVG Export Plug-In . SVG Version: 6.00 Build 0)  -->
<svg version="1.1" id="pagekit-logo" xmlns="http://www.w3.org/2000/svg" xmlns:xlink="http://www.w3.org/1999/xlink" x="0px"
	 y="0px" viewBox="0 0 80 50" style="enable-background:new 0 0 80 50;" xml:space="preserve">
<style type="text/css">
	.st0{fill:#333333;}
	.st1{fill:#BBBBBB;}
</style>
<g>
	<g>
		<path class="st0" d="M34.7,5.6c0,0,2.7,2.1,4.4,3.6c-0.1,0.4-0.5,0.6-1,0.6h-7.4c3.4,1.3,3.3,3.5,2.1,4.6l3.8,2.9
			c-0.3,0.3-0.7,0.6-1.4,0.8v15.8c0,3-0.7,4.6-5.8,5c-0.1-1.4-0.2-2.4-0.6-3.1c-0.4-0.6-0.9-1.2-2.4-1.4v-0.5c0,0,2.5,0.2,3.2,0.2
			c0.5,0,0.6-0.3,0.6-0.6V17.2H19.2l-0.3-1h10.8l1.1-1.3c-0.6,0-1.3-0.4-2-1c0.3-1.5,0-3.1-0.6-4.2h-0.5c-1.9,2.7-4.1,4.7-6.6,6.1
			l-0.4-0.3c0.8-1.6,1.5-3.6,2.2-5.9c-0.2,0.1-0.4,0.2-0.7,0.2h-5.4c5,2.2,0.8,6.6-2.1,3.8c0.1-1.3-0.1-2.7-0.6-3.8h-0.8
			c-2.2,3.9-5,6.8-8.1,8.9l-0.4-0.3c1.9-3.5,3.7-9,4.6-14.3L16.3,6c-0.1,0.5-0.6,0.8-1.4,0.8c-0.3,0.7-0.6,1.3-1,2h3.2l2.2-3
			c0,0,2.3,1.9,3.7,3.3c0.4-1.6,0.8-3.3,1-4.9l6.7,2.1c-0.2,0.5-0.6,0.8-1.5,0.8c-0.3,0.6-0.6,1.1-0.9,1.6h4L34.7,5.6z M28.1,31.5
			c0,0.4-2.1,1.5-3.6,1.5h-0.8v-1.8h-3.9v1.6c0,0.3-1.3,1.2-3.5,1.2h-0.8V19.5c-0.4,0-0.8-0.2-1.2-0.5c0-0.1-0.1-0.3-0.1-0.4
			c-0.2,0.1-0.5,0.3-1,0.3v18.8c0,0.3-2.1,1-3.9,1H8.3V17.3l5.5,0.5c-0.5-1.4-1.5-2.9-2.3-3.9l0.3-0.2c7.8,0.4,7.1,5.3,4.4,5.7
			l3.5,1.3h3.6l1.9-1.9l3.8,2.8c-0.1,0.2-0.5,0.4-1,0.5V31.5z M19.8,21.8v3.6h3.9v-3.6H19.8z M23.6,30.3v-3.9h-3.9v3.9H23.6z"/>
		<path class="st0" d="M70.5,4.7c0,0,3,2.3,4.7,3.9c-0.1,0.4-0.5,0.6-1,0.6H50v8.1c0,6.7-0.5,15.7-9,21.2l-0.3-0.2
			c3.7-6.2,4-14.1,4-21V5.6l6.1,2.5h17.1L70.5,4.7z M70,15.2l4.4,3.8c-0.3,0.3-0.7,0.6-1.5,0.7c-0.4,10.9-1.1,15-3.2,16.7
			c-1.3,1.1-2.9,1.6-5.3,1.6c0-1.6-0.1-2.8-0.7-3.5c-0.6-0.8-1.7-1.3-3.3-1.7v-0.4c1.4,0.1,3.5,0.2,4.3,0.2c0.5,0,0.9-0.1,1.2-0.4
			c1-0.9,1.5-5.1,1.8-13.5h-5.1c-0.5,7.8-3.2,16.2-15.9,19.8l-0.2-0.3c8.8-5.1,10.4-12.6,10.7-19.5h-6l-0.3-1h6.4c0-0.7,0-1.4,0-2.1
			v-5.3l6.8,0.6c0,0.5-0.3,0.8-1.3,1v3.7c0,0.7,0,1.4,0,2.1h4.7L70,15.2z"/>
	</g>
</g>
<g>
	<path class="st1" d="M10.9,45.4l1.8,2.4H11l-1.6-2.3H8.6v2.3H7.2v-6.5h2.9c1.6,0,2.3,1,2.3,2.1C12.4,44.3,11.9,45.2,10.9,45.4
		L10.9,45.4z M8.6,42.5v2h1.1c0.7,0,1.2-0.2,1.2-1c0-0.8-0.6-1-1.2-1H8.6z"/>
	<path class="st1" d="M20.5,45.3v1.4h3.7v1.2h-5.1v-6.5h4.7v1.2h-3.4V44h3v1.3H20.5z"/>
	<path class="st1" d="M31.6,45.9c0.1,0.9,0.9,1,1.4,1c0.5,0,1.3-0.1,1.3-0.8c0-1.4-3.9-0.5-3.9-2.9c0-1.3,1.3-2,2.4-2
		c1.4,0,2.6,0.6,2.6,2.1l-1.4-0.2c-0.2-0.8-0.8-0.8-1.3-0.8c-0.5,0-1,0.2-1,0.7c0,0.5,0.3,0.6,1.9,1c0.5,0.1,1.9,0.4,1.9,1.9
		c0,1.2-0.9,2.1-2.7,2.1c-1.5,0-2.8-0.7-2.8-2.3L31.6,45.9z"/>
	<path class="st1" d="M47.5,45.4c0,1.8-1,2.6-2.8,2.6C43,48,42,47.2,42,45.4v-4h1.4v4c0,0.7,0.2,1.4,1.3,1.4c1,0,1.3-0.4,1.3-1.4v-4
		h1.4V45.4z"/>
	<path class="st1" d="M54.4,41.3h1.9l1.5,2.9l1.5-2.9h1.9v6.5h-1.3v-4.6h0l-1.4,3h-1.1l-1.4-2.9h0v4.6h-1.4V41.3z"/>
	<path class="st1" d="M69.2,45.3v1.4h3.7v1.2h-5.1v-6.5h4.7v1.2h-3.4V44h3v1.3H69.2z"/>
</g>
</svg>
